<?xml version="1.0" encoding="UTF-8" standalone="no"?>
<!-- Created with Inkscape (http://www.inkscape.org/) -->

<svg
   width="128"
   height="128"
   viewBox="0 0 33.866666 33.866667"
   version="1.1"
   id="svg1"
   inkscape:version="1.4.4 (dcaf3e7d9e, 2026-05-05)"
   sodipodi:docname="sv-jukebox-icon.svg"
   xmlns:inkscape="http://www.inkscape.org/namespaces/inkscape"
   xmlns:sodipodi="http://sodipodi.sourceforge.net/DTD/sodipodi-0.dtd"
   xmlns="http://www.w3.org/2000/svg"
   xmlns:svg="http://www.w3.org/2000/svg">
  <sodipodi:namedview
     id="namedview1"
     pagecolor="#000000"
     bordercolor="#000000"
     borderopacity="0.25"
     inkscape:showpageshadow="2"
     inkscape:pageopacity="0.0"
     inkscape:pagecheckerboard="true"
     inkscape:deskcolor="#d1d1d1"
     inkscape:document-units="mm"
     showgrid="true"
     inkscape:zoom="2"
     inkscape:cx="181"
     inkscape:cy="34.25"
     inkscape:window-width="2194"
     inkscape:window-height="1162"
     inkscape:window-x="0"
     inkscape:window-y="0"
     inkscape:window-maximized="1"
     inkscape:current-layer="svg1">
    <inkscape:grid
       id="grid1"
       units="px"
       originx="0"
       originy="0"
       spacingx="4.2333333"
       spacingy="4.2333333"
       empcolor="#0099e5"
       empopacity="0.30196078"
       color="#0099e5"
       opacity="0.14901961"
       empspacing="4"
       enabled="true"
       visible="true" />
  </sodipodi:namedview>
  <defs
     id="defs1">
    <inkscape:path-effect
       effect="powermask"
       id="path-effect3"
       is_visible="true"
       lpeversion="1"
       uri="#mask-powermask-path-effect2"
       invert="false"
       hide_mask="false"
       background="true"
       background_color="#ffffffff" />
    <inkscape:path-effect
       effect="powermask"
       id="path-effect2"
       is_visible="true"
       lpeversion="1"
       uri="#mask-powermask-path-effect2"
       invert="false"
       hide_mask="false"
       background="true"
       background_color="#ffffffff" />
    <inkscape:path-effect
       effect="powermask"
       id="path-effect11"
       is_visible="true"
       lpeversion="1"
       uri="#mask-powermask-path-effect11"
       invert="false"
       hide_mask="false"
       background="true"
       background_color="#ffffffff" />
    <mask
       maskUnits="userSpaceOnUse"
       id="mask-powermask-path-effect3">
      <path
         id="path2"
         mask="none"
         style="fill:#000000;stroke-width:0.264583"
         d="M 12.698966,4.9883261 4.9883261,12.698966 26.155509,33.866151 4.9883261,55.033333 12.698966,62.743974 33.866151,41.576789 55.033333,62.743974 62.743974,55.033333 41.576789,33.866151 62.743974,12.698966 55.033333,4.9883261 33.866151,26.155509 Z" />
    </mask>
    <mask
       maskUnits="userSpaceOnUse"
       id="mask-powermask-path-effect2">
      <path
         id="path3"
         mask="none"
         style="fill:#000000;stroke-width:0.264583"
         d="M 12.698966,4.9883261 4.9883261,12.698966 26.155509,33.866151 4.9883261,55.033333 12.698966,62.743974 33.866151,41.576789 55.033333,62.743974 62.743974,55.033333 41.576789,33.866151 62.743974,12.698966 55.033333,4.9883261 33.866151,26.155509 Z" />
    </mask>
  </defs>
  <rect
     style="fill:#181a1b;stroke-width:0.264583;fill-opacity:1"
     id="rect1"
     width="33.866665"
     height="33.866665"
     x="0"
     y="0" />
  <path
     id="rect2"
     style="fill:#6f4fff;stroke-width:2.265"
     d="m 25.399999,3.8519632 -12.7,4.2457362 V 22.884393 a 2.1937029,3.3494645 65.069781 0 0 -1.592151,0.07441 2.1937029,3.3494645 65.069781 0 0 -3.1750001,3.0856 2.1937029,3.3494645 65.069781 0 0 3.1750001,1.543058 2.1937029,3.3494645 65.069781 0 0 3.175,-3.0856 2.1937029,3.3494645 65.069781 0 1 0,-5.17e-4 V 9.3653208 L 23.81715,6.1774027 V 19.167824 a 2.1937029,3.3494645 65.069781 0 0 -1.592151,0.07441 2.1937029,3.3494645 65.069781 0 0 -3.175,3.0856 2.1937029,3.3494645 65.069781 0 0 3.175,1.543058 2.1937029,3.3494645 65.069781 0 0 3.175,-3.0856 z" />
</svg>
